<mxfile host="65bd71144e">
    <diagram id="4YUBoF1SM2UPiCkTplfl" name="Page-1">
        <mxGraphModel dx="2344" dy="1942" grid="1" gridSize="10" guides="1" tooltips="1" connect="1" arrows="1" fold="1" page="1" pageScale="1" pageWidth="1920" pageHeight="1200" math="0" shadow="0">
            <root>
                <mxCell id="0"/>
                <mxCell id="1" parent="0"/>
                <mxCell id="2" value="" style="rounded=0;whiteSpace=wrap;html=1;strokeColor=default;fillColor=none;dashed=1;container=0;" vertex="1" parent="1">
                    <mxGeometry x="710" y="732" width="640" height="325" as="geometry"/>
                </mxCell>
                <mxCell id="3" value="" style="rounded=0;whiteSpace=wrap;html=1;dashed=1;fillColor=none;" vertex="1" parent="1">
                    <mxGeometry x="705" y="282.8" width="645" height="299.20000000000005" as="geometry"/>
                </mxCell>
                <mxCell id="4" value="" style="endArrow=classic;startArrow=classic;html=1;exitX=1;exitY=0.5;exitDx=0;exitDy=0;entryX=0;entryY=0.5;entryDx=0;entryDy=0;" edge="1" parent="1" source="16" target="7">
                    <mxGeometry width="100" height="100" relative="1" as="geometry">
                        <mxPoint x="685" y="386" as="sourcePoint"/>
                        <mxPoint x="755" y="402" as="targetPoint"/>
                    </mxGeometry>
                </mxCell>
                <mxCell id="5" value="" style="group" vertex="1" connectable="0" parent="1">
                    <mxGeometry x="760" y="342" width="190" height="200" as="geometry"/>
                </mxCell>
                <mxCell id="6" value="" style="group" vertex="1" connectable="0" parent="5">
                    <mxGeometry width="190" height="200" as="geometry"/>
                </mxCell>
                <mxCell id="7" value="&lt;font style=&quot;font-size: 16px;&quot;&gt;NotionDB class&lt;/font&gt;" style="rounded=0;whiteSpace=wrap;html=1;verticalAlign=top;" vertex="1" parent="6">
                    <mxGeometry width="190" height="200" as="geometry"/>
                </mxCell>
                <mxCell id="8" value="Create, Read, Update Entries (Pages)" style="rounded=0;whiteSpace=wrap;html=1;" vertex="1" parent="6">
                    <mxGeometry x="27.142857142857146" y="40" width="135.71428571428572" height="66.66666666666667" as="geometry"/>
                </mxCell>
                <mxCell id="9" value="Filter Entries by Field" style="rounded=0;whiteSpace=wrap;html=1;" vertex="1" parent="6">
                    <mxGeometry x="27.142857142857146" y="120.00000000000001" width="135.71428571428572" height="66.66666666666667" as="geometry"/>
                </mxCell>
                <mxCell id="10" value="Official Notion API" style="text;html=1;strokeColor=none;fillColor=none;align=center;verticalAlign=middle;whiteSpace=wrap;rounded=0;fontSize=16;" vertex="1" parent="1">
                    <mxGeometry x="620" y="392" width="60" height="30" as="geometry"/>
                </mxCell>
                <mxCell id="11" value="" style="endArrow=classic;startArrow=none;html=1;exitX=0.75;exitY=1;exitDx=0;exitDy=0;startFill=0;entryX=0.75;entryY=0;entryDx=0;entryDy=0;" edge="1" parent="1" source="23" target="33">
                    <mxGeometry width="100" height="100" relative="1" as="geometry">
                        <mxPoint x="1135" y="532" as="sourcePoint"/>
                        <mxPoint x="1045" y="682" as="targetPoint"/>
                    </mxGeometry>
                </mxCell>
                <mxCell id="12" value="WhatsApp" style="rounded=0;whiteSpace=wrap;html=1;fontSize=24;" vertex="1" parent="1">
                    <mxGeometry x="440" y="794.5" width="150" height="55" as="geometry"/>
                </mxCell>
                <mxCell id="13" value="" style="endArrow=classic;startArrow=classic;html=1;exitX=0;exitY=0.5;exitDx=0;exitDy=0;entryX=1;entryY=0.5;entryDx=0;entryDy=0;" edge="1" parent="1" source="27" target="12">
                    <mxGeometry width="100" height="100" relative="1" as="geometry">
                        <mxPoint x="715" y="753.25" as="sourcePoint"/>
                        <mxPoint x="775" y="662.25" as="targetPoint"/>
                    </mxGeometry>
                </mxCell>
                <mxCell id="14" value="Webpage" style="text;html=1;strokeColor=none;fillColor=none;align=center;verticalAlign=middle;whiteSpace=wrap;rounded=0;fontSize=16;" vertex="1" parent="1">
                    <mxGeometry x="620" y="782" width="60" height="30" as="geometry"/>
                </mxCell>
                <mxCell id="15" value="Existing Components" style="text;html=1;align=left;verticalAlign=middle;resizable=0;points=[];autosize=1;strokeColor=none;fillColor=none;fontSize=24;" vertex="1" parent="1">
                    <mxGeometry x="80" y="202" width="250" height="40" as="geometry"/>
                </mxCell>
                <mxCell id="16" value="Notion DB" style="shape=datastore;whiteSpace=wrap;html=1;fontSize=24;" vertex="1" parent="1">
                    <mxGeometry x="440" y="404" width="150" height="76" as="geometry"/>
                </mxCell>
                <mxCell id="17" style="edgeStyle=none;html=1;exitX=0.25;exitY=0;exitDx=0;exitDy=0;entryX=0.25;entryY=1;entryDx=0;entryDy=0;startArrow=none;startFill=0;endArrow=classic;endFill=1;" edge="1" parent="1" source="33" target="23">
                    <mxGeometry relative="1" as="geometry"/>
                </mxCell>
                <mxCell id="18" value="&lt;div style=&quot;font-size: 16px;&quot;&gt;&lt;span style=&quot;background-color: initial; font-size: 16px;&quot;&gt;1. Authentication Request (JWT token)&lt;/span&gt;&lt;/div&gt;&lt;div style=&quot;font-size: 16px;&quot;&gt;&lt;span style=&quot;background-color: initial; font-size: 16px;&quot;&gt;&lt;br style=&quot;font-size: 16px;&quot;&gt;&lt;/span&gt;&lt;/div&gt;&lt;div style=&quot;font-size: 16px;&quot;&gt;&lt;span style=&quot;background-color: initial; font-size: 16px;&quot;&gt;2. Filter and Send One Recommended Database Row&lt;/span&gt;&lt;/div&gt;" style="text;html=1;strokeColor=none;fillColor=none;align=left;verticalAlign=middle;whiteSpace=wrap;rounded=0;dashed=1;fontSize=16;" vertex="1" parent="1">
                    <mxGeometry x="1220" y="609.5" width="310" height="90" as="geometry"/>
                </mxCell>
                <mxCell id="19" value="&lt;div style=&quot;font-size: 16px;&quot;&gt;1. Provide JWT Token&lt;/div&gt;&lt;div style=&quot;font-size: 16px;&quot;&gt;&lt;br style=&quot;font-size: 16px;&quot;&gt;&lt;/div&gt;&lt;div style=&quot;font-size: 16px;&quot;&gt;2. Respond if message is sent&lt;/div&gt;" style="text;html=1;strokeColor=none;fillColor=none;align=left;verticalAlign=middle;whiteSpace=wrap;rounded=0;dashed=1;fontSize=16;" vertex="1" parent="1">
                    <mxGeometry x="900" y="609.5" width="192.5" height="75" as="geometry"/>
                </mxCell>
                <mxCell id="20" value="MSII SDG&lt;br style=&quot;font-size: 48px;&quot;&gt;Content Recommendation System" style="text;html=1;strokeColor=none;fillColor=none;align=left;verticalAlign=middle;whiteSpace=wrap;rounded=0;fontSize=48;" vertex="1" parent="1">
                    <mxGeometry x="80" y="80" width="960" height="122" as="geometry"/>
                </mxCell>
                <mxCell id="21" value="" style="group" vertex="1" connectable="0" parent="1">
                    <mxGeometry x="705" y="242" width="645" height="340" as="geometry"/>
                </mxCell>
                <mxCell id="22" value="&lt;font style=&quot;font-size: 24px;&quot;&gt;Notion/Database Sync Service Container&lt;/font&gt;" style="text;html=1;strokeColor=none;fillColor=none;align=center;verticalAlign=middle;whiteSpace=wrap;rounded=0;dashed=1;" vertex="1" parent="21">
                    <mxGeometry x="92.64" width="459.72" height="40.8" as="geometry"/>
                </mxCell>
                <mxCell id="23" value="Main (Node.js App)" style="rounded=0;whiteSpace=wrap;html=1;fontSize=16;" vertex="1" parent="1">
                    <mxGeometry x="1060" y="342" width="200" height="200" as="geometry"/>
                </mxCell>
                <mxCell id="24" value="" style="endArrow=classic;startArrow=classic;html=1;entryX=0;entryY=0.5;entryDx=0;entryDy=0;exitX=1;exitY=0.5;exitDx=0;exitDy=0;" edge="1" parent="1" source="7" target="23">
                    <mxGeometry width="100" height="100" relative="1" as="geometry">
                        <mxPoint x="832.65625" y="580.6400000000001" as="sourcePoint"/>
                        <mxPoint x="913.28125" y="580.6400000000001" as="targetPoint"/>
                    </mxGeometry>
                </mxCell>
                <mxCell id="25" value="WhatsApp Service Container" style="text;html=1;strokeColor=none;fillColor=none;align=center;verticalAlign=middle;whiteSpace=wrap;rounded=0;dashed=1;container=0;fontSize=24;" vertex="1" parent="1">
                    <mxGeometry x="883.75" y="1057" width="322.5" height="30" as="geometry"/>
                </mxCell>
                <mxCell id="26" style="edgeStyle=none;html=1;exitX=1;exitY=0.5;exitDx=0;exitDy=0;startArrow=classic;startFill=1;endArrow=classic;endFill=1;" edge="1" parent="1" source="27">
                    <mxGeometry relative="1" as="geometry">
                        <mxPoint x="1100" y="822" as="targetPoint"/>
                    </mxGeometry>
                </mxCell>
                <mxCell id="27" value="Unofficial&lt;br style=&quot;font-size: 16px;&quot;&gt;WhatsApp SDK" style="rounded=0;whiteSpace=wrap;html=1;container=0;fontSize=16;" vertex="1" parent="1">
                    <mxGeometry x="850" y="790.75" width="140" height="62.5" as="geometry"/>
                </mxCell>
                <mxCell id="28" value="JWT Authentication Module" style="rounded=0;whiteSpace=wrap;html=1;container=0;fontSize=16;" vertex="1" parent="1">
                    <mxGeometry x="1060" y="982" width="200" height="50" as="geometry"/>
                </mxCell>
                <mxCell id="29" style="edgeStyle=none;html=1;exitX=0.5;exitY=1;exitDx=0;exitDy=0;entryX=0.5;entryY=0;entryDx=0;entryDy=0;startArrow=classic;startFill=1;endArrow=classic;endFill=1;" edge="1" parent="1" source="33" target="28">
                    <mxGeometry relative="1" as="geometry"/>
                </mxCell>
                <mxCell id="30" style="edgeStyle=none;html=1;exitX=0.5;exitY=0;exitDx=0;exitDy=0;entryX=0.5;entryY=1;entryDx=0;entryDy=0;startArrow=classic;startFill=1;endArrow=classic;endFill=1;" edge="1" parent="1" source="31" target="27">
                    <mxGeometry relative="1" as="geometry"/>
                </mxCell>
                <mxCell id="31" value="WhatsApp Session&lt;br style=&quot;font-size: 16px;&quot;&gt;(Stored Login Data)" style="rounded=0;whiteSpace=wrap;html=1;container=0;fontSize=16;" vertex="1" parent="1">
                    <mxGeometry x="830" y="982" width="180" height="50" as="geometry"/>
                </mxCell>
                <mxCell id="32" value="Authenticates WhatsApp" style="text;html=1;strokeColor=none;fillColor=none;align=center;verticalAlign=middle;whiteSpace=wrap;rounded=0;container=0;" vertex="1" parent="1">
                    <mxGeometry x="940" y="872" width="60" height="30" as="geometry"/>
                </mxCell>
                <mxCell id="33" value="&lt;font style=&quot;font-size: 16px;&quot;&gt;Main Express API Service (Node.js App)&lt;/font&gt;" style="rounded=0;whiteSpace=wrap;html=1;container=0;" vertex="1" parent="1">
                    <mxGeometry x="1060" y="747" width="200" height="165" as="geometry"/>
                </mxCell>
                <mxCell id="34" value="&lt;div style=&quot;&quot;&gt;API on Port 3000&lt;/div&gt;" style="text;html=1;strokeColor=default;fillColor=none;align=center;verticalAlign=middle;whiteSpace=wrap;rounded=0;container=0;" vertex="1" parent="1">
                    <mxGeometry x="1060" y="747" width="200" height="25" as="geometry"/>
                </mxCell>
                <mxCell id="35" value="" style="endArrow=classic;html=1;exitX=1;exitY=0.5;exitDx=0;exitDy=0;" edge="1" parent="1" source="36">
                    <mxGeometry width="50" height="50" relative="1" as="geometry">
                        <mxPoint x="870" y="921.5" as="sourcePoint"/>
                        <mxPoint x="920" y="921.5" as="targetPoint"/>
                    </mxGeometry>
                </mxCell>
                <mxCell id="36" value="First Login: User Scans QR Code shown on console using WhatsApp" style="text;html=1;strokeColor=none;fillColor=none;align=center;verticalAlign=middle;whiteSpace=wrap;rounded=0;container=0;" vertex="1" parent="1">
                    <mxGeometry x="790" y="872" width="80" height="100" as="geometry"/>
                </mxCell>
            </root>
        </mxGraphModel>
    </diagram>
</mxfile>